<svg xmlns="http://www.w3.org/2000/svg" width="24" height="24" viewBox="0 0 24 24">
    <g fill="none" fill-rule="nonzero">
        <path fill="#FFF" d="M20.462 3.487A11.804 11.804 0 0 0 12.048 0C5.495 0 .161 5.334.161 11.892c0 2.096.548 4.145 1.588 5.945L.061 24l6.305-1.654a11.894 11.894 0 0 0 5.68 1.448h.005c6.554 0 11.892-5.334 11.892-11.892A11.83 11.83 0 0 0 20.46 3.49l.002-.002zm-8.411 18.3a9.875 9.875 0 0 1-5.034-1.378l-.362-.216-3.74.98.998-3.647-.233-.375a9.806 9.806 0 0 1-1.514-5.259c.007-5.46 4.432-9.882 9.891-9.886a9.828 9.828 0 0 1 6.989 2.896 9.831 9.831 0 0 1 2.892 6.993c-.005 5.456-4.439 9.891-9.887 9.891v.002zm5.42-7.405c-.296-.15-1.758-.867-2.03-.966-.272-.099-.47-.15-.67.15-.197.295-.769.966-.943 1.167-.173.197-.346.225-.641.075-.296-.15-1.257-.463-2.391-1.476-.882-.788-1.481-1.763-1.655-2.058-.174-.295-.02-.459.132-.604.136-.133.296-.347.446-.521.15-.174.196-.295.295-.496.099-.197.051-.371-.024-.521-.075-.15-.67-1.612-.914-2.208-.238-.582-.487-.501-.67-.512-.174-.008-.37-.008-.567-.008-.197 0-.52.075-.792.37-.271.295-1.041 1.017-1.041 2.48 0 1.462 1.063 2.873 1.213 3.075.15.196 2.096 3.2 5.077 4.486.708.304 1.261.487 1.692.628.712.226 1.359.192 1.87.117.572-.083 1.758-.716 2.007-1.411.249-.695.249-1.289.174-1.412-.07-.132-.267-.205-.567-.357l-.002.002z"/>
        <path d="M0 0h24v24H0z"/>
    </g>
</svg>
