<svg xmlns="http://www.w3.org/2000/svg" width="20" height="20" viewBox="0 0 20 20">
    <g fill="none" fill-rule="nonzero">
        <path fill="#FFF" d="M10 5.193A4.8 4.8 0 0 0 5.193 10 4.8 4.8 0 0 0 10 14.807 4.8 4.8 0 0 0 14.807 10 4.8 4.8 0 0 0 10 5.193zm0 7.931A3.13 3.13 0 0 1 6.876 10 3.13 3.13 0 0 1 10 6.876 3.13 3.13 0 0 1 13.124 10 3.13 3.13 0 0 1 10 13.124zm5.004-9.248a1.121 1.121 0 1 0 0 2.245c.621 0 1.123-.5 1.123-1.123a1.121 1.121 0 0 0-1.123-1.122zM19.37 10c0-1.294.012-2.576-.06-3.867-.073-1.5-.415-2.831-1.512-3.928-1.1-1.1-2.428-1.44-3.928-1.512C12.576.62 11.294.632 10.002.632 8.71.632 7.427.62 6.135.693c-1.5.073-2.831.415-3.928 1.512C1.107 3.304.768 4.633.695 6.133.623 7.427.635 8.709.635 10s-.012 2.576.06 3.867c.073 1.5.415 2.831 1.512 3.928 1.1 1.1 2.428 1.44 3.928 1.512 1.294.073 2.576.061 3.867.061 1.294 0 2.576.012 3.868-.061 1.5-.073 2.83-.415 3.928-1.512 1.099-1.099 1.439-2.428 1.511-3.928.075-1.291.061-2.573.061-3.867zm-2.062 5.527A2.978 2.978 0 0 1 16.6 16.6c-.33.33-.647.537-1.073.708-1.233.49-4.16.38-5.527.38-1.366 0-4.296.11-5.529-.378a2.978 2.978 0 0 1-1.073-.708 2.998 2.998 0 0 1-.708-1.073c-.488-1.235-.377-4.163-.377-5.529 0-1.366-.11-4.296.377-5.529.17-.426.377-.745.708-1.073A3.03 3.03 0 0 1 4.47 2.69c1.233-.488 4.163-.377 5.529-.377 1.366 0 4.296-.11 5.529.377.426.17.745.377 1.073.708.33.33.537.647.708 1.073.488 1.233.378 4.163.378 5.529 0 1.366.11 4.294-.38 5.527z"/>
        <path d="M-2-2h24v24H-2z"/>
    </g>
</svg>
